<svg xmlns="http://www.w3.org/2000/svg" width="860" height="437" viewBox="0 0 860 437" role="img" aria-label="driftn0de — neofetch">
<style>
text{font-family:ui-monospace,SFMono-Regular,Menlo,Consolas,'Liberation Mono','DejaVu Sans Mono',monospace;}
.ln,.em{opacity:0;animation:in .45s ease-out forwards}
.ln{transform-box:fill-box}
@keyframes in{to{opacity:1}}
@media (prefers-reduced-motion:reduce){.ln,.em{opacity:1;animation:none}}
</style>
<rect x="0.5" y="0.5" width="859" height="436" rx="10" fill="#f6f8fa" stroke="#d0d7de"/>
<path d="M0.5 10.5a10 10 0 0 1 10-10h839a10 10 0 0 1 10 10V32.5H0.5z" fill="#eaeef2"/>
<line x1="0.5" y1="32.5" x2="859.5" y2="32.5" stroke="#d0d7de"/>
<circle cx="20" cy="16.5" r="5.5" fill="#ff5f57"/><circle cx="38" cy="16.5" r="5.5" fill="#febc2e"/><circle cx="56" cy="16.5" r="5.5" fill="#28c840"/>
<text x="430.0" y="21" text-anchor="middle" font-size="12" fill="#59636e">driftn0de — neofetch</text>
<text x="28" y="56" font-size="13" fill="#59636e"><tspan fill="#0b7a6b">driftn0de@github</tspan> ~ $ neofetch</text>
<g class="ln" style="animation-delay:0.35s" transform="translate(0 83)"><text x="316" font-size="14" font-weight="700" fill="#0b7a6b">driftn0de<tspan fill="#1f2328">@</tspan>github</text></g>
<g class="ln" style="animation-delay:0.42s" transform="translate(0 104)"><text x="316" font-size="13" fill="#afb8c1">----------------</text></g>
<g class="ln" style="animation-delay:0.49s" transform="translate(0 125)"><text x="316" font-size="13" fill="#0969da">Role</text><text x="386.2" font-size="13" fill="#1f2328">backend-first, full-stack by necessity</text></g>
<g class="ln" style="animation-delay:0.56s" transform="translate(0 146)"><text x="316" font-size="13" fill="#0969da">Focus</text><text x="386.2" font-size="13" fill="#1f2328">enterprise systems · privacy tooling · self-hosting</text></g>
<g class="ln" style="animation-delay:0.63s" transform="translate(0 167)"><text x="316" font-size="13" fill="#0969da">Stack</text><text x="386.2" font-size="13" fill="#1f2328">TypeScript · NestJS · Next.js · PostgreSQL</text></g>
<g class="ln" style="animation-delay:0.70s" transform="translate(0 188)"><text x="316" font-size="13" fill="#0969da"></text><text x="386.2" font-size="13" fill="#1f2328">C# · SQL Server · Java · Swift · React Native</text></g>
<g class="ln" style="animation-delay:0.77s" transform="translate(0 209)"><text x="316" font-size="13" fill="#0969da">Infra</text><text x="386.2" font-size="13" fill="#1f2328">Linux homelab · local LLM inference · automation</text></g>
<g class="ln" style="animation-delay:0.91s" transform="translate(0 251)"><text x="316" font-size="13" fill="#0969da">Projects</text></g>
<g class="ln" style="animation-delay:0.98s" transform="translate(0 272)"><text x="316" font-size="13" fill="#afb8c1">»</text><text x="331.6" font-size="13" fill="#0b7a6b">AtlasPlan</text><text x="425.2" font-size="13" fill="#59636e">trip planner · Expo + Laravel API + React admin</text></g>
<g class="ln" style="animation-delay:1.05s" transform="translate(0 293)"><text x="316" font-size="13" fill="#afb8c1">»</text><text x="331.6" font-size="13" fill="#0b7a6b">KitchenAI</text><text x="425.2" font-size="13" fill="#59636e">native iOS app · Swift</text></g>
<g class="ln" style="animation-delay:1.12s" transform="translate(0 314)"><text x="316" font-size="13" fill="#afb8c1">»</text><text x="331.6" font-size="13" fill="#0b7a6b">claude-pad</text><text x="425.2" font-size="13" fill="#59636e">macro pad → Claude Code bridge · Node.js</text></g>
<g class="ln" style="animation-delay:1.19s" transform="translate(0 335)"><text x="316" font-size="13" fill="#afb8c1">»</text><text x="331.6" font-size="13" fill="#0b7a6b">homelab</text><text x="425.2" font-size="13" fill="#59636e">privacy-first, local-first, automated backups</text></g>
<g class="ln" style="animation-delay:1.33s" transform="translate(0 377)"><text x="316" font-size="13" fill="#0969da">Uptime</text><text x="386.2" font-size="13" fill="#1f2328">always improving, always pushing</text></g>
<g class="ln" style="animation-delay:1.47s" transform="translate(0 419)"><rect x="316" y="-12" width="24" height="14" rx="2" fill="#b4ede3"/><rect x="342" y="-12" width="24" height="14" rx="2" fill="#5fd4c2"/><rect x="368" y="-12" width="24" height="14" rx="2" fill="#1fa392"/><rect x="394" y="-12" width="24" height="14" rx="2" fill="#0b6b5e"/><rect x="420" y="-12" width="24" height="14" rx="2" fill="#0969da"/><rect x="446" y="-12" width="24" height="14" rx="2" fill="#9a6700"/><rect x="472" y="-12" width="24" height="14" rx="2" fill="#ff7b72"/><rect x="498" y="-12" width="24" height="14" rx="2" fill="#59636e"/></g>
<g class="em" style="animation-delay:0.00s" font-size="14" text-anchor="middle" fill="#0b7a6b"><text x="152.1" y="119.5">N</text></g>
<g class="em" style="animation-delay:0.04s" font-size="14" text-anchor="middle" fill="#0b7a6b"><text x="152.1" y="137.5">^</text></g>
<g class="em" style="animation-delay:0.08s" font-size="14" text-anchor="middle" fill="#0b7a6b"><text x="109.1" y="155.5">.</text><text x="152.1" y="155.5">|</text><text x="195.1" y="155.5">.</text></g>
<g class="em" style="animation-delay:0.12s" font-size="14" text-anchor="middle" fill="#0b7a6b"><text x="83.3" y="173.5">.</text><text x="152.1" y="173.5">|</text><text x="220.9" y="173.5">.</text></g>
<g class="em" style="animation-delay:0.16s" font-size="14" text-anchor="middle" fill="#0b7a6b"><text x="66.1" y="191.5">.</text><text x="117.7" y="191.5">\</text><text x="152.1" y="191.5">|</text><text x="186.5" y="191.5">/</text><text x="238.1" y="191.5">.</text></g>
<g class="em" style="animation-delay:0.20s" font-size="14" text-anchor="middle" fill="#0b7a6b"><text x="57.5" y="209.5">.</text><text x="126.3" y="209.5">\</text><text x="152.1" y="209.5">|</text><text x="177.9" y="209.5">/</text><text x="246.7" y="209.5">.</text></g>
<g class="em" style="animation-delay:0.24s" font-size="14" text-anchor="middle" fill="#0b7a6b"><text x="48.9" y="227.5">.</text><text x="134.9" y="227.5">\</text><text x="152.1" y="227.5">|</text><text x="169.3" y="227.5">/</text><text x="255.3" y="227.5">.</text></g>
<g class="em" style="animation-delay:0.28s" font-size="14" text-anchor="middle" fill="#0b7a6b"><text x="40.3" y="245.5">W</text><text x="57.5" y="245.5">&lt;</text><text x="66.1" y="245.5">-</text><text x="74.7" y="245.5">-</text><text x="83.3" y="245.5">-</text><text x="91.9" y="245.5">-</text><text x="100.5" y="245.5">-</text><text x="109.1" y="245.5">-</text><text x="117.7" y="245.5">-</text><text x="126.3" y="245.5">-</text><text x="134.9" y="245.5">(</text><text x="152.1" y="245.5">+</text><text x="169.3" y="245.5">)</text><text x="177.9" y="245.5">-</text><text x="186.5" y="245.5">-</text><text x="195.1" y="245.5">-</text><text x="203.7" y="245.5">-</text><text x="212.3" y="245.5">-</text><text x="220.9" y="245.5">-</text><text x="229.5" y="245.5">-</text><text x="238.1" y="245.5">-</text><text x="246.7" y="245.5">&gt;</text><text x="263.9" y="245.5">E</text></g>
<g class="em" style="animation-delay:0.32s" font-size="14" text-anchor="middle" fill="#0b7a6b"><text x="48.9" y="263.5">.</text><text x="134.9" y="263.5">/</text><text x="152.1" y="263.5">|</text><text x="169.3" y="263.5">\</text><text x="255.3" y="263.5">.</text></g>
<g class="em" style="animation-delay:0.36s" font-size="14" text-anchor="middle" fill="#0b7a6b"><text x="57.5" y="281.5">.</text><text x="126.3" y="281.5">/</text><text x="152.1" y="281.5">|</text><text x="177.9" y="281.5">\</text><text x="246.7" y="281.5">.</text></g>
<g class="em" style="animation-delay:0.40s" font-size="14" text-anchor="middle" fill="#0b7a6b"><text x="66.1" y="299.5">.</text><text x="117.7" y="299.5">/</text><text x="152.1" y="299.5">|</text><text x="186.5" y="299.5">\</text><text x="238.1" y="299.5">.</text></g>
<g class="em" style="animation-delay:0.44s" font-size="14" text-anchor="middle" fill="#0b7a6b"><text x="83.3" y="317.5">.</text><text x="152.1" y="317.5">|</text><text x="220.9" y="317.5">.</text></g>
<g class="em" style="animation-delay:0.48s" font-size="14" text-anchor="middle" fill="#0b7a6b"><text x="109.1" y="335.5">.</text><text x="152.1" y="335.5">|</text><text x="195.1" y="335.5">.</text></g>
<g class="em" style="animation-delay:0.52s" font-size="14" text-anchor="middle" fill="#0b7a6b"><text x="152.1" y="353.5">v</text></g>
<g class="em" style="animation-delay:0.56s" font-size="14" text-anchor="middle" fill="#0b7a6b"><text x="152.1" y="371.5">S</text></g>
</svg>
